<?xml version="1.0" encoding="utf-8"?>
<!-- Generator: Adobe Illustrator 26.4.1, SVG Export Plug-In . SVG Version: 6.00 Build 0)  -->
<svg version="1.1" id="Layer_1"
	 xmlns="http://www.w3.org/2000/svg" xmlnsXlink="http://www.w3.org/1999/xlink" x="0px" y="0px" viewBox="0 0 30 30"
	 style="enable-background:new 0 0 30 30;" xmlSpace="preserve">
<g>
	<path d="M10.5,16C8.6,16,7,17.6,7,19.5S8.6,23,10.5,23c1.8,0,3.2-1.3,3.5-3H16c0.2,1.7,1.7,3,3.5,3c1.9,0,3.5-1.6,3.5-3.5
		S21.4,16,19.5,16c-1.8,0-3.2,1.3-3.5,3H14C13.7,17.3,12.3,16,10.5,16z"/>
	<path d="M10.7,7c-1,0-1.9,0.7-2.2,1.7L7.1,14H5.5C5.2,14,5,14.2,5,14.5S5.2,15,5.5,15c6.3,0,12.7,0,19,0c0.3,0,0.5-0.2,0.5-0.5
		S24.8,14,24.5,14h-1.6l-1.4-5.3c-0.3-1.3-1.7-2-2.9-1.6l-3.4,1.2c-0.1,0-0.2,0-0.3,0l-3.4-1.2C11.2,7,11,7,10.7,7z"/>
</g>
</svg>
