<?xml version="1.0" encoding="utf-8"?>
<!-- Generator: Adobe Illustrator 26.4.1, SVG Export Plug-In . SVG Version: 6.00 Build 0)  -->
<svg version="1.1" id="Layer_1" xmlns="http://www.w3.org/2000/svg" xmlns:xlink="http://www.w3.org/1999/xlink" x="0px" y="0px"
	 viewBox="0 0 16.9 11.5" style="enable-background:new 0 0 16.9 11.5;" xml:space="preserve">
<path d="M8.5,0C8.2,0,7.9,0.2,7.7,0.4L4.9,5.2L1.4,2.4C1,2.1,0.5,2.2,0.2,2.5C0,2.7,0,3,0,3.3l1.7,7.6c0.1,0.4,0.4,0.7,0.8,0.7h11.8
	c0.4,0,0.8-0.3,0.8-0.7l1.7-7.6c0.1-0.5-0.2-0.9-0.6-1c-0.3-0.1-0.5,0-0.7,0.2l-3.5,2.8L9.2,0.4C9,0.2,8.8,0,8.5,0L8.5,0z"/>
</svg>
