<?xml version="1.0" encoding="utf-8"?>
<!-- Generator: Adobe Illustrator 26.4.1, SVG Export Plug-In . SVG Version: 6.00 Build 0)  -->
<svg version="1.1" id="Layer_1" xmlns="http://www.w3.org/2000/svg" xmlns:xlink="http://www.w3.org/1999/xlink" x="0px" y="0px"
	 viewBox="0 0 24 24" style="enable-background:new 0 0 24 24;" xml:space="preserve">
<path d="M21.9,11.5c-2-3.6-5.8-5.8-9.9-5.8c-1,0-1.9,0.1-2.9,0.4L12,9c1.7,0,3,1.3,3,3l3.9,3.9c1.2-0.9,2.2-2.1,3-3.4
	C22,12.2,22,11.8,21.9,11.5z"/>
<path d="M5.7,4.3c-0.4-0.4-1-0.4-1.4-0.1s-0.4,1-0.1,1.4c0,0,0.1,0.1,0.1,0.1L6,7.5c-1.6,1-3,2.4-3.9,4c-0.2,0.3-0.2,0.7,0,1
	c2,3.6,5.8,5.8,9.9,5.8c1.4,0,2.8-0.3,4.1-0.8l2.2,2.2c0.4,0.4,1,0.4,1.4,0c0.4-0.4,0.4-1,0-1.4L5.7,4.3z M12,15c-1.7,0-3-1.3-3-3
	c0-0.4,0.1-0.9,0.3-1.3l4,4C12.9,14.9,12.4,15,12,15z"/>
</svg>
